<?xml version="1.0" standalone="no"?>
<!DOCTYPE svg PUBLIC "-//W3C//DTD SVG 20010904//EN"
 "http://www.w3.org/TR/2001/REC-SVG-20010904/DTD/svg10.dtd">
<svg version="1.0" xmlns="http://www.w3.org/2000/svg"
 width="700.000000pt" height="700.000000pt" viewBox="0 0 700.000000 700.000000"
 preserveAspectRatio="xMidYMid meet">
<metadata>
Created by potrace 1.14, written by Peter Selinger 2001-2017
</metadata>
<g transform="translate(0.000000,700.000000) scale(0.100000,-0.100000)"
fill="#000000" stroke="none">
<path d="M3388 6785 c-2 -1 -57 -5 -123 -9 -66 -3 -131 -8 -145 -10 -14 -3
-47 -7 -75 -11 -27 -3 -68 -10 -90 -15 -22 -5 -56 -11 -77 -14 -65 -10 -342
-85 -434 -117 -211 -75 -472 -197 -644 -302 -541 -330 -988 -821 -1259 -1381
-105 -218 -231 -590 -265 -781 -58 -331 -71 -539 -53 -855 8 -144 10 -155 53
-430 31 -194 157 -562 280 -815 162 -335 443 -713 697 -940 44 -39 89 -79 100
-90 104 -98 373 -288 535 -378 219 -122 469 -227 708 -298 121 -36 346 -85
439 -95 28 -3 53 -8 56 -10 15 -9 232 -19 414 -19 256 0 348 8 585 51 670 121
1266 436 1755 928 462 465 785 1086 890 1715 3 19 7 37 9 40 2 3 7 33 11 66 4
33 8 74 11 90 17 130 23 422 11 630 -25 451 -181 970 -415 1380 -414 725
-1022 1226 -1832 1508 -148 52 -377 104 -620 142 -85 14 -511 29 -522 20z
m-17 -91 c-131 -54 -246 -130 -340 -226 l-49 -50 -76 22 c-87 24 -144 35 -301
55 -11 1 -51 3 -89 4 -39 0 -66 5 -60 9 5 5 38 21 74 36 36 15 79 34 95 41 68
29 259 85 338 99 15 3 58 8 95 12 37 3 87 9 112 13 25 4 95 8 155 9 l110 2
-64 -26z m364 -7 c55 -9 129 -28 215 -53 101 -30 320 -116 320 -125 0 -3 -39
-14 -87 -23 -122 -24 -323 -92 -497 -169 l-149 -66 -66 14 c-36 7 -87 16 -113
19 -26 4 -75 19 -110 35 -35 15 -96 40 -135 55 -40 15 -73 30 -73 34 0 3 19
23 41 44 113 105 272 191 419 226 117 28 120 29 165 21 22 -4 54 -9 70 -12z
m320 -9 c90 -18 218 -59 328 -105 59 -25 107 -47 105 -48 -2 -2 -24 -5 -50 -7
-40 -4 -61 1 -130 34 -143 68 -299 128 -334 128 -7 0 -15 4 -18 9 -6 9 17 6
99 -11z m662 -278 c112 -70 283 -191 300 -212 10 -11 -1 -13 -60 -13 l-72 0
-79 64 c-64 52 -231 168 -312 217 -15 9 -3 10 53 8 69 -3 77 -6 170 -64z
m-332 51 c5 -5 37 -23 70 -41 111 -61 355 -232 355 -249 0 -3 -26 -14 -58 -24
-77 -25 -172 -88 -235 -158 l-52 -57 -55 25 c-151 69 -184 84 -295 126 -130
49 -387 131 -447 142 -63 12 -63 12 117 92 95 42 300 107 373 119 19 3 44 8
56 10 11 3 41 7 66 11 25 3 46 6 47 7 7 6 49 4 58 -3z m-1718 -16 c32 -3 77
-11 101 -16 23 -5 58 -12 78 -15 19 -3 51 -11 70 -18 35 -12 35 -12 17 -33
-17 -20 -31 -22 -203 -27 -102 -4 -196 -8 -210 -11 -14 -2 -47 -6 -74 -9 -89
-10 -229 -36 -330 -62 -54 -13 -100 -23 -101 -22 -5 5 155 122 230 169 59 37
80 45 135 49 81 6 210 4 287 -5z m2238 -42 c88 -31 214 -99 291 -156 66 -50
159 -135 153 -141 -2 -2 -51 12 -108 31 -90 30 -116 44 -195 107 -50 40 -129
98 -176 130 -47 32 -87 61 -90 63 -9 8 52 -9 125 -34z m-2746 13 c-2 -2 -49
-38 -104 -81 -55 -42 -118 -95 -140 -116 -27 -25 -68 -50 -118 -69 -43 -16
-105 -43 -137 -59 -74 -37 -69 -20 17 59 117 107 260 192 409 244 75 27 79 28
73 22z m887 -62 c27 -9 54 -21 59 -27 7 -7 6 -8 -1 -4 -5 3 -38 7 -71 9 -55 2
-60 5 -52 20 12 22 5 21 65 2z m-176 -73 c0 -2 -22 -50 -50 -105 -79 -161
-134 -353 -155 -542 -7 -57 -11 -64 -69 -125 -34 -35 -93 -100 -131 -144 -37
-44 -71 -84 -76 -89 -4 -4 -46 -18 -92 -30 l-85 -22 -45 23 c-66 33 -191 82
-282 110 -70 21 -101 29 -203 49 -49 10 -183 20 -251 19 l-71 -1 36 66 c96
174 248 379 398 537 93 98 100 103 174 127 205 67 450 112 682 123 69 3 126 6
127 7 5 3 93 1 93 -3z m347 -21 c68 -9 156 -42 186 -70 5 -4 -38 -39 -95 -76
-146 -96 -287 -204 -404 -309 -57 -51 -117 -106 -158 -144 l-48 -46 6 35 c3
19 8 51 11 70 25 159 112 397 189 519 l28 44 104 -7 c57 -3 138 -11 181 -16z
m458 -84 c189 -47 481 -153 676 -244 l86 -40 -34 -69 c-31 -64 -69 -174 -76
-218 -1 -11 -6 -22 -11 -23 -4 -2 -45 30 -89 71 -117 107 -118 108 -172 153
-235 192 -354 280 -467 344 -32 17 -58 35 -58 39 0 14 13 21 29 17 9 -3 61
-16 116 -30z m-124 -71 c38 -25 71 -45 74 -45 11 0 228 -151 290 -201 122
-100 218 -185 327 -291 65 -64 68 -69 64 -105 -2 -21 -5 -59 -5 -86 -1 -45 -2
-47 -25 -43 -14 2 -60 8 -103 11 -43 4 -80 9 -83 10 -17 10 -307 20 -560 20
-266 -1 -385 -5 -520 -20 -25 -3 -63 -7 -85 -10 -22 -2 -67 -7 -100 -11 -33
-3 -79 -9 -103 -14 l-42 -7 4 91 c2 50 4 101 5 113 1 12 21 41 45 65 79 78
170 162 226 208 30 25 57 47 60 50 36 39 206 160 410 293 36 23 44 22 121 -28z
m1370 -22 c125 -110 335 -346 437 -490 l23 -32 -33 -14 c-18 -8 -62 -26 -96
-41 -68 -29 -77 -27 -123 16 -62 59 -413 282 -570 363 l-57 29 25 32 c52 69
168 142 266 169 73 19 69 20 128 -32z m207 25 c113 -91 463 -452 462 -477 0
-3 -35 -17 -78 -31 l-77 -25 -64 85 c-99 133 -197 245 -314 364 l-109 109 82
-6 c45 -3 89 -12 98 -19z m228 -72 c90 -43 95 -47 139 -115 51 -79 107 -192
99 -200 -3 -3 -16 8 -29 25 -35 45 -73 86 -203 217 -64 64 -112 117 -108 117
5 0 51 -20 102 -44z m-3623 4 c-89 -82 -272 -332 -379 -516 -36 -63 -69 -113
-71 -110 -8 8 65 242 97 313 16 35 51 100 77 144 l47 80 120 59 c66 33 122 57
125 54 2 -2 -5 -13 -16 -24z m3807 -31 l25 -21 -33 19 c-18 10 -43 29 -55 42
l-22 25 30 -22 c17 -12 41 -31 55 -43z m-4046 16 c-3 -8 -29 -31 -57 -50 l-52
-36 54 51 c60 55 63 57 55 35z m4150 -168 c92 -69 222 -185 214 -192 -1 -1
-40 -5 -86 -8 l-82 -5 -63 129 c-34 71 -60 129 -58 129 2 0 36 -24 75 -53z
m-4289 -69 c-47 -102 -95 -240 -115 -331 -11 -49 -17 -58 -39 -63 -138 -30
-287 -100 -391 -183 -25 -20 -53 -43 -63 -51 -41 -31 125 220 225 343 78 95
213 222 321 304 54 40 100 73 102 73 2 0 -16 -42 -40 -92z m3203 40 c157 -85
337 -198 485 -306 48 -35 87 -65 87 -68 0 -2 -62 -35 -138 -73 -76 -38 -160
-82 -188 -99 l-51 -30 -89 19 c-84 17 -91 21 -133 66 -25 26 -74 79 -109 116
-64 68 -65 69 -59 115 11 91 89 302 112 302 3 0 40 -19 83 -42z m1348 -222
c31 -7 93 -70 123 -124 22 -41 8 -130 -44 -271 -3 -8 -37 32 -84 102 -43 63
-104 148 -135 189 -65 87 -69 105 -23 110 46 5 127 2 163 -6z m-255 -39 c18
-25 50 -125 70 -222 17 -80 17 -83 24 -139 4 -27 8 -56 10 -65 1 -9 6 -47 9
-86 l7 -70 -79 155 c-71 141 -164 302 -214 372 l-19 28 28 11 c33 12 124 38
138 38 6 0 17 -10 26 -22z m-220 -75 c9 -15 42 -70 74 -122 52 -86 195 -350
195 -361 0 -3 -69 63 -152 146 -84 83 -180 173 -213 202 -33 28 -71 61 -85 73
-14 12 -20 23 -15 26 71 34 144 63 160 63 12 1 27 -11 36 -27z m-2782 -82 c-1
-77 -4 -92 -20 -101 -11 -5 -19 -8 -19 -6 0 3 -33 -2 -72 -9 -40 -8 -77 -14
-81 -14 -7 0 6 15 114 135 25 27 52 58 60 67 8 10 15 17 17 18 1 0 2 -41 1
-90z m1772 -22 c37 -40 65 -76 63 -79 -2 -4 -21 -3 -41 2 -21 5 -52 9 -70 9
-25 0 -32 5 -35 23 -4 32 3 117 10 117 4 0 36 -33 73 -72z m783 8 c33 -25 40
-31 151 -129 82 -73 302 -295 315 -319 8 -12 -4 -10 -48 12 -169 81 -407 169
-627 230 -82 22 -158 44 -169 48 -14 6 23 29 155 95 96 48 178 87 183 87 5 0
23 -11 40 -24z m661 -133 c41 -62 75 -118 75 -126 0 -17 -58 -131 -93 -182
l-27 -40 -1 30 c-1 17 -3 44 -4 60 -2 17 -6 59 -9 95 -3 36 -8 74 -10 85 -2
11 -7 43 -10 70 -8 53 -21 119 -32 151 -9 30 25 -15 111 -143z m282 70 c93
-127 283 -466 270 -479 -2 -3 -28 1 -58 7 -65 14 -80 16 -141 18 -46 1 -48 3
-83 56 -19 31 -35 57 -35 60 0 2 -21 38 -46 80 -45 74 -49 97 -24 130 12 16
50 145 50 171 0 38 15 29 67 -43z m-4501 32 c126 -19 221 -43 331 -84 124 -46
163 -64 163 -72 0 -4 -24 -13 -52 -19 -182 -44 -501 -164 -713 -269 -85 -42
-156 -72 -158 -66 -5 13 -2 96 8 210 7 90 22 139 79 252 18 35 34 53 49 55 61
11 196 7 293 -7z m-436 -27 c0 -55 -30 -165 -75 -283 -29 -77 -66 -182 -82
-234 l-28 -94 -92 -69 c-177 -130 -276 -221 -378 -343 -32 -38 -62 -74 -67
-80 -24 -26 27 331 68 478 60 217 91 276 204 388 107 106 236 184 376 229 72
23 74 23 74 8z m2765 -12 c114 -11 318 -35 322 -39 1 -1 4 -38 7 -82 4 -44 11
-106 17 -139 6 -32 7 -62 2 -66 -4 -4 -87 -59 -183 -122 -204 -133 -469 -321
-664 -472 -77 -58 -142 -106 -146 -106 -4 0 -38 37 -76 82 -98 116 -333 349
-446 442 l-96 79 -6 61 c-4 33 -9 79 -11 101 -6 51 -14 205 -11 205 1 0 27 4
57 10 30 5 72 12 94 14 22 3 67 8 100 11 33 4 71 8 85 11 13 2 81 6 150 10 69
3 127 8 129 10 5 5 608 -4 676 -10z m490 -61 c71 -13 82 -18 112 -52 30 -34
34 -53 13 -53 -5 0 -55 -29 -112 -64 -57 -36 -106 -62 -110 -58 -8 8 -15 53
-24 166 l-7 79 49 -6 c27 -4 63 -9 79 -12z m-1816 -72 c1 -38 3 -79 5 -93 3
-14 7 -55 11 -92 l6 -67 -158 106 c-87 58 -157 111 -155 117 2 6 14 22 28 36
19 21 43 29 126 44 57 10 108 19 113 20 19 6 22 -4 24 -71z m2025 28 c11 -16
-27 -22 -43 -6 -14 13 -13 15 11 15 15 0 29 -4 32 -9z m237 -51 c253 -71 388
-119 604 -212 105 -46 208 -98 203 -103 -2 -3 -22 -7 -44 -10 -127 -18 -405
-75 -566 -116 -42 -10 -81 -19 -86 -19 -6 0 -57 66 -114 146 -57 81 -112 159
-123 175 -11 15 -40 53 -64 84 -24 30 -42 57 -40 59 11 9 65 35 75 36 6 0 75
-18 155 -40z m-2591 20 c0 -5 -7 -10 -15 -10 -8 0 -15 5 -15 10 0 6 7 10 15
10 8 0 15 -4 15 -10z m-52 -38 c10 -7 -10 -42 -85 -143 -241 -331 -471 -738
-628 -1114 -32 -77 -62 -144 -66 -148 -3 -5 -33 5 -65 21 l-59 30 -17 68 c-17
69 -62 272 -73 329 -7 40 -32 218 -39 280 -3 28 -9 109 -12 181 l-7 131 159
80 c232 117 497 218 744 283 101 27 110 27 148 2z m2445 -109 c88 -118 159
-218 209 -295 l37 -57 -37 -11 c-20 -6 -122 -35 -227 -65 -104 -29 -193 -51
-197 -47 -12 13 -69 187 -97 297 -23 86 -26 113 -17 123 18 19 229 150 243
151 7 1 45 -43 86 -96z m-2284 17 c123 -77 256 -173 256 -185 1 -12 15 -99 21
-128 2 -12 7 -38 10 -57 20 -123 110 -427 188 -634 14 -37 26 -70 26 -71 0 -1
-15 -8 -32 -16 -18 -7 -64 -27 -103 -45 -38 -17 -87 -39 -108 -48 -101 -42
-414 -191 -605 -288 -117 -59 -217 -108 -222 -108 -5 0 -32 21 -62 46 -29 25
-98 75 -153 112 -55 37 -103 71 -106 76 -4 5 1 27 11 50 10 22 43 102 75 176
113 267 295 598 477 871 89 133 218 309 226 309 3 0 48 -27 101 -60z m3614
-69 c31 -55 57 -101 57 -103 0 -2 -15 -4 -32 -4 -18 0 -77 -4 -130 -8 l-98 -7
68 110 c37 61 69 111 72 111 3 0 31 -45 63 -99z m-4876 -88 l-2 -87 -34 -23
c-19 -13 -35 -22 -37 -20 -3 3 66 217 71 217 2 0 2 -39 2 -87z m3178 30 c4
-16 8 -35 10 -43 9 -44 30 -117 63 -215 20 -60 37 -114 37 -118 0 -4 -126 -50
-280 -101 -154 -52 -384 -132 -511 -180 -127 -47 -236 -86 -241 -86 -5 0 -24
18 -41 39 l-31 39 137 104 c75 58 189 142 252 188 131 96 581 400 591 400 4 0
10 -12 14 -27z m-1570 -125 c99 -85 147 -130 260 -243 72 -71 155 -159 185
-195 30 -35 61 -71 68 -79 16 -17 23 -9 -118 -121 -58 -46 -128 -103 -157
-127 l-52 -45 -16 38 c-52 125 -166 503 -189 625 -2 13 -9 53 -16 89 -6 36
-13 73 -15 83 -4 19 1 17 50 -25z m3423 -107 c35 -75 67 -140 70 -146 3 -5
-12 5 -33 23 -90 73 -187 144 -271 197 -48 30 -86 55 -83 56 2 0 51 3 109 6
58 3 107 7 108 8 16 14 44 -27 100 -144z m163 113 c29 -9 63 -23 75 -31 31
-20 67 -118 60 -161 -4 -30 -85 -164 -107 -177 -5 -4 -22 22 -38 57 -60 134
-75 166 -118 252 l-45 89 61 -7 c33 -4 84 -14 112 -22z m-617 -6 c-22 -37
-212 -284 -249 -324 -5 -7 -55 -64 -109 -127 -55 -64 -103 -114 -107 -111 -4
2 -21 31 -38 64 -29 55 -134 240 -190 333 -13 20 -19 37 -14 38 13 1 35 6 101
23 34 9 82 21 105 25 23 5 67 14 97 21 30 6 66 14 80 17 65 13 277 49 303 51
21 2 26 -1 21 -10z m23 -170 c-7 -127 -13 -201 -22 -253 -3 -16 -7 -52 -10
-80 -3 -27 -8 -57 -10 -65 -2 -8 -7 -33 -10 -55 -6 -45 -5 -39 -35 -185 -12
-58 -26 -112 -30 -121 -5 -8 -42 -36 -83 -61 l-74 -46 -38 92 c-21 50 -65 144
-97 210 -64 128 -64 122 -13 171 5 6 48 55 95 110 47 55 87 102 91 105 11 9
196 245 213 273 10 15 21 27 24 27 2 0 2 -55 -1 -122z m-4597 70 c1 -43 6
-110 15 -203 12 -110 15 -141 20 -165 3 -14 7 -45 10 -69 8 -60 61 -324 80
-391 8 -30 15 -58 15 -61 0 -4 -30 2 -67 13 -93 25 -107 28 -198 34 -101 7
-105 8 -100 36 2 13 6 64 10 113 3 50 8 104 10 120 2 17 6 49 9 73 5 35 20
130 40 247 10 55 50 212 58 228 8 16 75 65 91 66 4 1 7 -18 7 -41z m4985 -136
c108 -87 162 -137 176 -164 11 -20 6 -27 -51 -80 l-63 -57 -76 127 c-42 70
-112 176 -154 235 -42 59 -77 110 -77 113 0 9 157 -103 245 -174z m-210 -277
c20 -82 38 -160 40 -172 4 -17 -8 -31 -63 -71 -97 -71 -212 -143 -212 -133 0
6 4 20 9 34 5 13 12 41 15 61 4 21 8 41 10 45 2 3 7 29 11 56 3 28 15 100 25
161 11 61 22 156 26 210 4 54 8 108 9 119 1 11 3 38 5 60 1 35 7 25 45 -90 25
-71 60 -197 80 -280z m42 250 c33 -49 88 -139 123 -199 l63 -109 -24 -19 c-37
-29 -107 -78 -112 -78 -2 0 -10 28 -16 63 -17 87 -65 265 -101 374 -16 51 -30
95 -30 99 0 10 29 -30 97 -131z m-978 77 c36 -55 189 -320 218 -376 l25 -48
-29 -31 c-15 -17 -91 -95 -167 -174 l-140 -143 -23 27 c-45 54 -192 279 -242
371 -60 109 -135 272 -128 278 8 9 425 131 452 133 6 0 21 -16 34 -37z m-4003
20 c-3 -6 -14 -55 -41 -183 -12 -59 -45 -276 -51 -334 -3 -38 -8 -83 -10 -100
-1 -16 -4 -56 -5 -88 -1 -31 -7 -61 -13 -65 -6 -4 -33 -14 -61 -20 -82 -21
-167 -66 -238 -125 l-66 -56 -6 27 c-13 60 -32 252 -34 339 l-2 92 58 78 c52
70 222 249 298 313 42 36 167 130 172 130 2 0 2 -3 -1 -8z m5549 -172 c21 -81
22 -84 41 -200 8 -52 17 -104 19 -115 3 -17 1 -16 -13 5 -37 54 -131 177 -160
209 l-31 34 20 26 c11 14 36 50 56 79 41 60 43 59 68 -38z m-6109 3 c-14 -115
-16 -140 -21 -237 -4 -78 -10 -107 -26 -130 l-20 -31 5 78 c8 100 13 137 42
285 9 50 19 92 22 92 2 0 1 -26 -2 -57z m4035 17 c4 -8 38 -76 74 -151 73
-149 166 -303 264 -435 l64 -87 -75 -71 c-164 -157 -301 -282 -413 -381 -38
-33 -73 -65 -79 -70 -6 -6 -58 -51 -116 -100 -58 -48 -111 -94 -118 -102 -20
-19 -26 -16 -41 20 -151 347 -352 702 -554 976 -26 35 -46 65 -45 66 2 1 35
14 73 28 39 14 140 51 225 83 237 87 703 244 719 241 8 -1 17 -9 22 -17z
m1923 -275 c50 -136 110 -342 145 -497 l22 -97 -29 -67 -30 -68 -11 45 c-47
181 -148 459 -229 624 l-39 79 56 53 c31 29 59 52 62 53 4 0 28 -56 53 -125z
m99 -10 c30 -44 69 -109 87 -143 32 -63 32 -65 26 -165 -11 -167 -15 -168 -56
-12 -30 114 -74 255 -126 400 -10 30 6 11 69 -80z m-3146 3 c13 -18 19 -35 15
-39 -4 -4 -50 -24 -102 -44 -52 -21 -117 -46 -145 -57 -27 -11 -48 -18 -45
-15 8 7 160 129 200 159 45 34 51 34 77 -4z m2862 -66 c86 -170 182 -433 227
-620 25 -101 25 -105 7 -125 -39 -47 -100 -102 -149 -133 -44 -28 -156 -74
-182 -74 -5 0 -8 51 -8 113 0 116 -12 379 -19 432 -3 17 -7 53 -10 82 -3 28
-14 101 -23 161 l-18 110 25 20 c63 50 116 91 118 91 2 1 16 -25 32 -57z
m-905 -70 c63 -126 138 -303 133 -316 -3 -6 -68 -46 -146 -90 -162 -89 -136
-91 -238 15 -68 72 -118 130 -118 139 0 6 316 340 322 340 2 0 23 -40 47 -88z
m-1846 -14 c206 -287 371 -574 508 -883 l54 -120 -63 -29 c-74 -34 -354 -146
-366 -146 -16 0 -280 386 -335 490 -7 14 -23 43 -36 65 -82 144 -250 495 -250
523 0 6 12 15 28 21 15 5 108 44 207 85 99 41 183 75 187 75 4 1 33 -36 66
-81z m3222 -47 c0 -32 -6 -24 -14 19 -4 25 -3 31 4 20 5 -8 10 -26 10 -39z
m-687 32 c4 -7 12 -53 23 -143 1 -13 6 -45 9 -70 12 -86 14 -105 21 -230 5
-69 8 -190 8 -270 l1 -145 -65 -3 c-71 -4 -151 9 -252 40 -59 18 -68 24 -77
52 -5 17 -24 76 -41 132 l-31 101 39 134 c22 74 45 153 51 176 11 40 20 48
154 137 146 98 153 101 160 89z m-5569 -93 c8 -93 15 -150 26 -220 22 -128 22
-129 2 -158 -10 -15 -22 -36 -26 -47 -8 -20 -8 -20 -16 2 -5 12 -12 48 -16 80
-3 32 -8 61 -10 64 -1 3 -6 66 -10 141 -6 130 -6 137 16 177 13 22 25 40 26
38 1 -1 5 -36 8 -77z m-124 -27 c-8 -15 -9 -13 -6 12 2 17 6 44 7 60 2 23 3
20 6 -12 2 -24 -1 -51 -7 -60z m2680 -78 c115 -271 338 -661 514 -898 31 -42
56 -79 56 -81 0 -20 -1017 -374 -1031 -358 -3 4 -24 45 -45 92 -85 185 -190
362 -308 520 l-56 75 88 85 c49 47 137 130 197 185 59 55 113 105 119 110 19
18 319 279 371 322 27 23 52 39 56 35 3 -4 21 -43 39 -87z m-252 -32 c-62 -54
-115 -100 -118 -103 -3 -3 -41 -37 -84 -75 -44 -39 -94 -83 -112 -100 -17 -16
-55 -52 -85 -79 -30 -26 -96 -89 -147 -139 l-93 -91 -103 110 c-57 60 -102
113 -99 117 7 12 395 204 620 307 109 50 225 104 258 120 33 16 64 29 68 29 4
1 -43 -43 -105 -96z m3956 -10 c9 -38 19 -79 22 -93 10 -45 13 -274 4 -325
-20 -109 -33 -165 -40 -165 -3 0 -8 25 -9 55 -1 30 -4 62 -5 72 -2 10 -7 43
-10 74 -4 31 -9 67 -11 80 -3 13 -8 44 -11 69 -3 25 -6 47 -7 50 0 3 7 39 16
80 20 89 25 117 26 148 1 37 8 25 25 -45z m-5480 7 c54 -15 102 -34 107 -41 5
-8 14 -32 20 -54 5 -22 23 -79 38 -126 l29 -86 -49 -159 c-26 -87 -49 -166
-49 -174 -1 -11 -261 -191 -300 -208 -4 -1 -12 37 -20 85 -7 48 -14 96 -16
105 -1 9 -6 48 -10 85 -4 37 -8 82 -11 98 -2 17 -6 137 -10 268 l-6 238 89 -2
c62 -1 119 -10 188 -29z m-324 -112 c1 -73 3 -164 5 -203 6 -102 16 -226 20
-255 2 -14 6 -50 10 -80 3 -30 13 -95 21 -144 8 -48 14 -89 12 -91 -2 -1 -34
-25 -73 -54 l-69 -52 -38 75 c-81 160 -167 396 -214 580 -14 55 -27 107 -30
114 -6 19 121 143 181 176 44 24 147 65 168 66 4 0 7 -60 7 -132z m4736 87
c-4 -19 -18 -71 -33 -116 l-25 -82 -31 78 c-26 64 -28 78 -16 85 8 5 34 22 59
39 25 16 47 30 49 30 2 1 0 -15 -3 -34z m-5271 -250 c4 -27 10 -66 14 -85 9
-42 8 -56 -12 -140 -9 -36 -18 -85 -21 -109 -3 -24 -7 -45 -9 -47 -3 -3 -20
60 -34 126 -29 143 -22 341 18 480 l12 45 13 -110 c7 -60 15 -132 19 -160z
m4565 247 c0 -4 44 -54 98 -111 l98 -103 -110 -56 c-149 -75 -357 -178 -431
-212 -33 -15 -103 -48 -155 -72 -52 -25 -111 -51 -130 -58 -19 -7 -39 -17 -45
-21 -5 -4 -28 -14 -50 -23 l-40 -17 30 28 c17 16 57 51 90 78 33 28 62 52 65
55 3 3 41 37 85 75 106 94 181 163 290 267 177 170 205 193 205 170z m-3493
-59 c21 -10 39 -18 41 -19 6 -3 -31 -114 -37 -114 -3 0 -14 26 -23 58 -9 32
-20 66 -24 75 -8 21 -4 21 43 0z m4087 -125 l33 -93 -30 -83 -30 -82 -36 21
c-103 60 -274 198 -256 205 6 3 69 38 140 78 99 56 132 70 138 60 4 -7 23 -55
41 -106z m-3894 14 c93 -66 190 -144 190 -154 0 -5 -8 -12 -17 -15 -10 -4 -34
-16 -53 -28 -19 -12 -74 -43 -121 -68 l-86 -47 -36 99 c-21 54 -37 104 -37
112 0 8 12 49 27 91 31 88 23 87 133 10z m3600 -133 c41 -34 113 -86 160 -117
47 -30 87 -57 89 -58 17 -14 -229 -539 -357 -762 -141 -245 -411 -642 -437
-642 -15 0 -193 113 -283 180 -63 47 -71 57 -77 94 -30 193 -96 451 -170 661
-31 88 -59 169 -62 180 -4 18 17 30 164 94 268 119 372 168 638 302 138 69
252 127 255 127 3 1 39 -26 80 -59z m-4711 -19 c28 -129 120 -382 209 -572
l50 -107 -61 -56 -61 -55 -38 103 c-52 141 -121 370 -151 504 l-25 113 25 65
c14 36 29 63 33 60 5 -3 13 -27 19 -55z m6096 -70 c3 -30 8 -73 10 -95 3 -22
7 -80 9 -130 5 -81 3 -95 -19 -135 -21 -39 -24 -42 -25 -20 -1 14 -3 39 -5 55
-2 17 -6 57 -9 90 -5 56 -15 131 -20 158 -18 90 -17 102 10 152 l28 50 7 -35
c4 -19 10 -60 14 -90z m-5140 -37 l28 -77 -23 -15 c-13 -9 -41 -27 -63 -40
l-40 -24 7 34 c8 43 56 199 60 199 2 0 16 -35 31 -77z m4159 -82 c-3 -3 -94
40 -94 45 0 2 29 85 36 104 4 9 17 -18 33 -65 15 -44 26 -82 25 -84z m-3665
42 c56 -59 100 -112 99 -119 -2 -6 -75 -86 -162 -177 l-160 -165 -28 57 c-31
61 -116 250 -146 323 -11 27 -10 29 56 67 119 69 217 120 229 121 6 0 57 -48
112 -107z m4527 19 c0 -4 4 -34 8 -67 13 -91 15 -105 21 -180 13 -157 11 -188
-15 -230 -36 -59 -116 -152 -200 -233 -74 -73 -292 -254 -298 -248 -1 2 6 46
17 97 26 121 29 136 46 244 17 112 31 245 39 369 3 32 8 62 13 65 4 4 33 13
63 20 76 18 177 73 241 131 49 44 63 51 65 32z m-905 -85 l55 -27 38 -162 c45
-197 54 -238 61 -303 3 -27 8 -63 10 -80 11 -71 20 -173 30 -347 l4 -88 -57
-36 c-144 -93 -510 -243 -791 -325 -140 -40 -144 -41 -178 -25 -22 11 -31 20
-26 29 4 6 43 61 87 122 180 248 336 505 477 785 72 144 183 390 212 473 4 10
10 17 15 15 4 -2 32 -16 63 -31z m-5137 -128 c20 -75 55 -193 79 -263 24 -69
41 -126 37 -126 -9 0 -126 180 -153 235 -17 37 -23 65 -22 105 3 67 16 193 20
188 2 -2 19 -64 39 -139z m1106 26 c13 -33 52 -120 87 -194 l63 -134 -22 -26
c-13 -14 -28 -30 -34 -36 -44 -41 -326 -385 -398 -485 -18 -24 -18 -22 -12
100 4 69 9 145 12 170 7 67 24 191 29 223 12 67 30 164 40 217 2 14 12 57 21
95 l17 70 75 47 c87 53 82 55 122 -47z m4224 29 c27 -7 72 -16 100 -20 28 -4
60 -8 71 -10 11 -1 41 -3 68 -3 46 -1 47 -2 43 -28 -3 -16 -7 -68 -11 -118 -6
-86 -10 -124 -20 -190 -2 -16 -7 -52 -11 -80 -6 -56 -58 -310 -74 -366 -7 -25
-22 -45 -50 -63 -48 -32 -60 -33 -58 -3 1 26 -11 206 -17 260 -9 68 -15 113
-20 137 -3 13 -7 42 -10 65 -7 46 -13 79 -20 115 -3 14 -8 41 -11 60 -6 34
-49 217 -61 254 -4 15 -2 18 13 11 11 -4 41 -13 68 -21z m-3626 -81 c99 -134
188 -281 264 -433 43 -85 78 -159 78 -166 0 -9 -114 -46 -370 -118 -55 -15
-89 -20 -97 -14 -14 11 -162 259 -224 374 l-43 81 39 41 c225 234 291 301 297
302 3 0 29 -30 56 -67z m-858 3 c0 -3 -9 -42 -20 -88 -10 -46 -22 -99 -25
-118 -3 -19 -10 -62 -16 -95 -6 -33 -13 -71 -14 -85 -1 -14 -6 -50 -10 -80 -8
-58 -8 -61 -20 -205 -4 -49 -9 -92 -10 -93 -8 -9 -126 389 -141 477 -3 14 -9
44 -14 66 -7 28 -6 43 3 52 17 17 250 172 260 173 4 0 7 -2 7 -4z m5400 -60
c-8 -8 -9 -4 -6 14 2 14 6 32 7 40 1 8 4 2 6 -14 3 -16 0 -33 -7 -40z m-6366
-40 c3 -16 2 -25 -1 -22 -4 4 -9 19 -11 34 -4 35 5 25 12 -12z m3820 -256 c55
-167 136 -501 136 -556 0 -44 -410 349 -558 535 l-19 24 171 138 171 137 32
-87 c18 -47 48 -133 67 -191z m-224 226 c0 -3 -55 -48 -121 -100 l-121 -96
-28 38 c-27 37 -27 37 -6 46 41 18 102 43 171 70 39 16 77 32 85 36 18 11 20
11 20 6z m2705 -43 c-2 -16 -6 -65 -9 -110 -6 -84 -50 -317 -67 -356 -8 -19
-8 -18 -4 8 2 17 7 53 11 80 3 28 8 61 10 75 2 14 7 79 10 144 5 92 12 128 26
153 24 40 27 41 23 6z m-6202 -97 c20 -30 65 -90 101 -134 l65 -80 -31 -39
c-17 -21 -44 -58 -59 -82 -16 -25 -29 -42 -29 -39 0 4 -11 49 -25 100 -24 89
-41 178 -51 263 -3 22 -7 46 -9 53 -8 23 2 12 38 -42z m556 2 c6 -29 13 -64
16 -78 8 -41 73 -271 95 -334 11 -33 20 -64 20 -69 0 -22 -152 209 -253 385
l-27 46 63 51 c34 28 65 50 69 51 4 0 11 -24 17 -52z m2640 -35 c17 -21 31
-41 31 -45 0 -8 -373 -288 -525 -394 -154 -107 -450 -302 -454 -298 -2 2 -18
58 -36 126 -18 68 -45 158 -60 200 -16 43 -27 80 -24 82 2 3 132 47 289 99
271 91 494 170 660 236 41 16 78 30 82 30 3 1 20 -16 37 -36z m2906 -85 c-4
-46 -8 -90 -10 -98 -1 -8 -6 -40 -10 -70 -3 -30 -11 -71 -15 -90 -5 -19 -12
-50 -15 -69 -8 -49 -38 -154 -69 -240 -40 -113 -154 -239 -310 -342 -84 -55
-209 -112 -277 -126 -28 -5 -30 -4 -25 18 3 13 10 49 16 79 6 30 33 114 59
185 27 72 63 176 81 232 l31 102 92 68 c165 121 347 291 420 391 17 23 32 42
35 42 2 0 1 -37 -3 -82z m-4786 45 c20 -44 151 -272 193 -336 21 -32 38 -62
38 -67 0 -7 -46 -20 -160 -45 -229 -50 -416 -86 -518 -99 l-43 -6 42 60 c85
121 414 519 430 520 3 0 11 -12 18 -27z m-908 -81 c42 -75 193 -307 230 -353
39 -50 37 -54 -13 -23 -135 85 -378 291 -378 321 0 17 111 124 122 117 4 -2
21 -30 39 -62z m2910 -29 c85 -105 331 -351 450 -451 l96 -82 7 -62 c14 -125
16 -154 20 -226 2 -39 1 -74 -2 -76 -11 -7 -84 -16 -297 -41 -139 -15 -257
-20 -550 -20 -331 0 -480 6 -610 24 -39 6 -87 11 -108 13 -21 1 -40 5 -41 8
-2 3 -6 43 -10 90 -6 84 -11 124 -21 167 -5 20 17 37 169 138 194 128 542 375
715 508 62 48 115 87 116 87 1 0 31 -35 66 -77z m-3066 -180 c27 -60 68 -145
92 -191 24 -46 43 -87 43 -92 0 -19 -190 21 -237 50 -21 12 -36 35 -52 78 -20
54 -22 65 -10 99 17 54 90 163 108 163 4 0 29 -48 56 -107z m195 -102 c41 -32
117 -83 168 -116 51 -32 91 -59 90 -61 -2 -1 -58 -5 -125 -8 l-122 -6 -70 140
c-39 76 -71 143 -71 149 0 6 12 -2 28 -16 15 -14 61 -51 102 -82z m1658 33
c48 -123 110 -366 96 -371 -5 -2 -63 -37 -129 -78 l-119 -74 -21 22 c-41 43
-305 412 -305 426 0 4 55 21 123 39 67 18 163 46 212 61 50 16 97 30 106 30
11 1 23 -18 37 -55z m-452 -201 c43 -65 118 -170 165 -234 l87 -116 -35 -20
-35 -20 -94 24 c-120 30 -418 128 -552 182 -127 50 -322 142 -322 152 0 4 37
12 82 19 45 6 168 30 273 51 233 49 219 46 280 63 28 8 55 15 61 15 6 1 46
-52 90 -116z m3802 -46 c-17 -54 -33 -95 -36 -92 -5 4 -5 20 -3 119 1 27 8 38
33 54 18 12 34 20 35 18 1 -1 -11 -46 -29 -99z m-93 -62 c-8 -202 -12 -223
-68 -335 l-52 -105 -109 -3 c-182 -5 -371 32 -581 113 -130 50 -129 50 -44 75
88 25 366 116 394 130 11 5 83 36 160 70 77 33 176 80 220 105 44 24 81 44 82
44 1 1 0 -42 -2 -94z m-5138 71 c32 -8 87 -17 122 -20 35 -2 67 -8 71 -13 5
-4 33 -51 63 -103 30 -52 64 -111 75 -129 14 -23 18 -39 12 -46 -17 -20 -58
-139 -65 -188 -9 -59 -12 -57 -100 74 -82 124 -149 239 -199 344 -21 44 -41
83 -43 88 -6 9 -4 9 64 -7z m513 -12 c0 -3 -128 -213 -134 -221 -2 -2 -28 42
-60 98 -32 55 -56 103 -53 106 4 3 48 8 99 10 51 3 94 6 96 8 4 4 52 3 52 -1z
m26 -97 c2 -18 5 -66 8 -107 3 -41 8 -86 10 -99 3 -13 8 -48 12 -77 3 -30 12
-79 19 -109 7 -30 11 -55 9 -55 -4 0 -112 154 -154 219 -29 46 -32 57 -23 81
16 42 106 190 112 185 3 -3 6 -20 7 -38z m260 -20 c204 -92 446 -177 652 -228
50 -13 92 -26 92 -29 0 -3 -10 -10 -23 -16 -45 -22 -293 -145 -309 -154 -25
-14 -21 -16 -95 47 -131 110 -460 433 -442 433 3 0 59 -24 125 -53z m3055 -61
c74 -50 138 -93 143 -97 5 -5 -2 -23 -16 -42 -24 -30 -34 -34 -124 -51 -55 -9
-110 -19 -124 -22 -23 -4 -25 -2 -26 38 -1 46 -13 215 -19 261 -3 26 -2 27 15
15 9 -7 78 -53 151 -102z m-3228 -8 c49 -105 151 -290 213 -386 30 -45 54 -86
54 -91 0 -5 -37 -19 -81 -31 l-82 -24 -22 27 c-38 49 -94 288 -111 474 -3 36
-7 73 -9 84 -7 35 4 20 38 -53z m425 -318 c44 -36 81 -67 81 -70 1 -3 -39 -21
-89 -42 l-89 -36 -23 31 c-36 48 -107 164 -146 237 -19 36 -47 88 -62 116 -81
151 -78 150 90 -16 86 -85 193 -184 238 -220z m959 192 c5 -51 6 -95 3 -97 -3
-2 -48 4 -100 12 -86 13 -98 18 -127 49 -18 18 -33 37 -33 42 0 5 19 19 43 32
23 13 76 45 117 72 l75 47 7 -32 c4 -18 10 -74 15 -125z m3586 -29 c-76 -121
-152 -230 -189 -273 -109 -127 -279 -281 -409 -370 l-44 -30 34 69 c43 86 107
255 130 343 16 61 20 68 49 74 143 31 346 136 431 222 36 37 35 23 -2 -35z
m-1529 28 c3 -5 -5 -11 -19 -13 -20 -4 -23 -3 -14 8 13 16 25 18 33 5z m-3484
-306 c52 -67 74 -104 66 -112 -3 -3 -48 -6 -100 -7 -109 -1 -122 5 -193 92
-40 49 -41 53 -37 108 4 58 12 90 41 171 l16 43 80 -118 c44 -64 101 -144 127
-177z m1158 260 c-2 -2 -18 0 -36 2 -30 5 -31 7 -15 18 15 11 21 11 36 -2 9
-9 16 -17 15 -18z m2460 -19 c97 -48 317 -124 412 -142 109 -20 206 -30 288
-30 50 1 92 -1 92 -3 0 -2 -21 -40 -46 -85 -111 -193 -272 -404 -420 -551
l-73 -72 -123 -36 c-177 -51 -254 -67 -433 -91 -89 -12 -415 -30 -415 -23 0 1
22 48 49 104 81 164 135 351 157 538 7 65 14 75 113 180 46 49 159 179 168
194 3 5 143 39 166 40 10 1 39 -10 65 -23z m-2473 -32 c43 -9 67 -21 84 -41
13 -15 60 -68 105 -117 44 -50 81 -99 82 -110 1 -52 -52 -215 -92 -284 l-25
-43 -87 47 c-163 89 -398 241 -534 347 l-38 29 167 84 c91 47 175 92 187 100
22 15 39 13 151 -12z m2153 -22 c-14 -18 -54 -63 -131 -146 l-45 -49 3 87 c2
48 6 91 10 94 9 9 158 40 168 34 4 -2 2 -11 -5 -20z m-1934 -17 c56 -7 74 -21
71 -55 -1 -8 -3 -33 -4 -55 l-1 -40 -75 75 c-72 72 -90 98 -62 87 8 -3 39 -8
71 -12z m1724 -116 l-4 -112 -65 -61 c-174 -164 -237 -218 -354 -306 -197
-149 -333 -240 -359 -240 -34 0 -247 139 -420 273 -117 91 -219 178 -330 285
l-90 86 2 50 c5 104 8 121 17 121 6 0 46 -5 90 -9 229 -25 348 -31 645 -31
259 0 430 6 550 20 19 2 58 6 85 9 98 11 160 18 162 20 1 1 19 3 39 4 l36 3
-4 -112z m1402 10 c0 -14 -34 -132 -61 -214 -23 -67 -82 -185 -131 -260 -29
-44 -47 -57 -143 -107 -60 -32 -113 -57 -117 -58 -15 0 -7 16 25 50 128 138
320 411 388 553 22 45 39 61 39 36z m-3809 -120 c148 -112 504 -333 569 -354
11 -4 20 -10 20 -15 0 -4 -29 -35 -64 -67 -104 -95 -269 -163 -319 -130 -97
63 -512 542 -486 560 22 15 186 73 194 69 6 -3 44 -32 86 -63z m822 -61 c242
-233 448 -392 715 -555 26 -15 30 -22 20 -30 -22 -18 -312 61 -533 144 -135
51 -365 154 -365 164 0 4 9 23 19 41 23 40 76 188 85 241 4 20 9 37 11 37 2 0
23 -19 48 -42z m-1103 -46 c82 -115 192 -243 312 -364 58 -60 101 -108 95
-109 -17 -2 -56 1 -107 7 -33 4 -56 16 -95 48 -130 112 -433 431 -421 444 7 6
138 50 151 51 6 0 35 -35 65 -77z m2665 -14 c-29 -198 -89 -378 -179 -537
l-41 -74 -122 7 c-67 3 -128 8 -135 10 -7 3 -36 7 -63 9 -45 5 -165 53 -165
67 0 3 35 27 78 55 194 124 408 292 562 442 36 34 66 63 68 63 2 0 0 -19 -3
-42z m-2950 -55 c15 -38 41 -96 60 -130 18 -35 30 -63 28 -63 -18 0 -293 234
-293 249 0 4 17 6 38 5 20 0 57 2 82 6 25 3 48 5 51 3 4 -1 19 -33 34 -70z
m290 -236 c129 -129 128 -133 -10 -66 -58 28 -85 48 -99 71 -76 129 -106 185
-115 212 -9 27 -2 22 47 -33 31 -36 111 -118 177 -184z m982 -13 c195 -91 436
-179 652 -239 l114 -31 -96 -47 c-198 -95 -505 -181 -652 -180 -34 0 -232 123
-394 245 -53 40 -60 49 -45 54 136 48 225 104 292 180 25 30 47 54 49 54 2 0
38 -16 80 -36z m2977 8 c-63 -56 -84 -72 -84 -63 0 10 23 31 70 65 46 32 52
32 14 -2z m-4057 -91 c12 -19 5 -16 -31 13 -25 21 -46 40 -46 43 0 11 63 -35
77 -56z m3797 -87 c-114 -108 -302 -221 -422 -253 -24 -7 -51 -15 -60 -18 -9
-3 24 24 73 62 50 37 117 91 151 121 33 29 81 60 105 69 59 22 73 28 149 63
36 16 67 28 69 26 3 -2 -27 -34 -65 -70z m-3505 -14 c17 0 36 -14 126 -88 32
-27 155 -116 215 -156 65 -43 58 -45 -46 -10 -122 41 -162 61 -264 129 -82 55
-210 164 -210 179 0 2 36 -9 80 -25 44 -16 89 -29 99 -29z m350 -83 c93 -75
155 -118 256 -182 l89 -56 -64 2 c-52 1 -76 8 -120 32 -76 43 -232 147 -309
207 l-65 50 74 0 73 0 66 -53z m2781 -18 c-19 -16 -88 -66 -154 -109 -90 -61
-128 -80 -155 -81 -148 -5 -360 3 -380 15 -3 2 -23 7 -44 10 -63 10 -167 38
-167 45 0 3 6 13 13 22 10 13 44 17 192 22 249 9 416 31 615 81 122 31 121 31
80 -5z m-1435 -14 c151 -28 191 -38 270 -70 50 -21 99 -41 110 -45 74 -28 74
-20 4 -84 -120 -108 -278 -188 -445 -224 l-90 -19 -116 23 c-63 13 -166 39
-229 58 -120 36 -289 103 -289 115 0 3 42 14 93 24 134 26 375 110 507 176 63
32 124 56 135 54 11 -1 34 -5 50 -8z m490 -59 c18 3 20 -10 2 -24 -10 -8 -27
-7 -65 5 -29 9 -52 20 -52 23 0 4 22 4 50 0 27 -3 56 -5 65 -4z m80 -116 c67
-19 133 -33 220 -45 22 -4 51 -8 65 -11 14 -2 60 -4 104 -5 l78 -1 -28 -17
c-38 -23 -160 -73 -254 -104 -205 -68 -456 -105 -670 -97 -35 1 -35 1 20 24
143 60 267 142 359 240 19 20 35 36 35 36 1 0 33 -9 71 -20z m-1240 -183 c50
-20 109 -41 133 -48 74 -21 45 -28 -40 -9 -112 25 -233 64 -352 114 l-99 41
59 5 c53 5 67 1 134 -31 41 -20 116 -52 165 -72z m-468 97 c-3 -3 -12 -4 -19
-1 -8 3 -5 6 6 6 11 1 17 -2 13 -5z m680 -170 c-3 -3 -12 -4 -19 -1 -8 3 -5 6
6 6 11 1 17 -2 13 -5z"/>
</g>
</svg>
